<svg width="92" height="93" viewBox="0 0 92 93" fill="none" xmlns="http://www.w3.org/2000/svg">
<path d="M92 46.9916C92 50.557 91.5975 54.0217 90.8211 57.3571C89.671 62.3889 87.687 67.1043 85.0274 71.3455C81.3182 77.2686 76.3008 82.3004 70.3633 86.0096C66.1222 88.6692 61.4067 90.6532 56.3749 91.8034C53.0395 92.5797 49.5604 92.9822 45.995 92.9822C42.4296 92.9822 38.9648 92.5797 35.6295 91.8034C30.5977 90.6532 25.8822 88.6692 21.6411 86.0096C15.7036 82.3004 10.6718 77.2686 6.9626 71.3455C4.30297 67.1043 2.33339 62.3889 1.16889 57.3715C0.392591 54.0361 -0.00999451 50.557 -0.00999451 46.9916C-0.00999451 43.4118 0.392591 39.9327 1.16889 36.5973C2.33339 31.5799 4.30297 26.8644 6.9626 22.6233C10.6718 16.7001 15.7036 11.6683 21.6411 7.95926C25.8822 5.29954 30.5977 3.31557 35.6295 2.16546C38.9648 1.38916 42.4296 0.986572 45.995 0.986572C49.5604 0.986572 53.0395 1.38916 56.3749 2.16546C61.4067 3.31557 66.1222 5.29954 70.3633 7.95926C76.3008 11.6683 81.3182 16.7001 85.0274 22.6233C87.687 26.8644 89.671 31.5799 90.8211 36.6117C91.5975 39.9471 92 43.4262 92 46.9916Z" fill="#0EB815"/>
<path d="M92 46.9913C92 50.5568 91.5975 54.0215 90.8211 57.3569C89.671 62.3887 87.687 67.1041 85.0274 71.3452C81.3182 77.2684 76.3008 82.3002 70.3633 86.0093C66.1222 88.669 61.4067 90.6529 56.3749 91.8031C53.0395 92.5794 49.5604 92.9819 45.995 92.9819C42.4296 92.9819 38.9648 92.5794 35.6295 91.8031C30.5977 90.6529 25.8822 88.669 21.6411 86.0093C16.0918 82.5446 11.3331 77.9153 7.69583 72.4953C8.08403 72.7398 8.47222 72.9842 8.86033 73.2286C13.1014 75.8883 17.817 77.8722 22.8488 79.0223C26.1842 79.7987 29.6489 80.2012 33.2142 80.2012C36.7797 80.2012 40.2588 79.7987 43.5941 79.0223C63.9088 74.3791 79.2192 56.0983 79.2192 34.2106C79.2192 30.6452 78.8167 27.1661 78.0403 23.8307C76.8902 18.7989 74.9062 14.0834 72.2466 9.84235C72.0022 9.45416 71.7434 9.06596 71.499 8.67786C76.9334 12.3151 81.5626 17.0737 85.0274 22.623C87.687 26.8642 89.671 31.5797 90.8211 36.6115C91.5975 39.9469 92 43.426 92 46.9913Z" fill="#07E30F"/>
<path d="M23.625 82.3149L21.641 86.0096C16.8176 82.995 12.0658 78.6999 8.44336 73.5452C8.18459 73.2145 7.95452 72.8551 7.71014 72.51C7.46576 72.1219 7.207 71.7337 6.96253 71.3455L10.6717 69.3616C12.0375 68.6283 13.7339 68.8728 14.8409 69.9797L23.0068 78.1313C23.3231 78.4476 23.5675 78.807 23.74 79.2096C24.1713 80.1872 24.1425 81.3373 23.625 82.3149Z" fill="#E4E3FF"/>
<path d="M56.3749 91.8033C53.0395 92.5796 49.5604 92.9821 45.995 92.9821C42.4296 92.9821 38.9648 92.5796 35.6295 91.8033L36.8371 87.7921C37.2972 86.297 38.6773 85.2762 40.23 85.2762H51.76C53.327 85.2762 54.7072 86.297 55.1672 87.7921L56.3749 91.8033Z" fill="#E4E3FF"/>
<path d="M85.0274 71.3455C81.3182 77.2687 76.3008 82.3005 70.3633 86.0096L68.3793 82.3149C67.6461 80.9491 67.8905 79.2383 68.9975 78.1313L77.149 69.9797C78.256 68.8728 79.9525 68.6283 81.3326 69.3616L85.0274 71.3455Z" fill="#E4E3FF"/>
<path d="M91.9999 46.9916C91.9999 50.5571 91.5974 54.0218 90.821 57.3572L86.81 56.1495C85.3148 55.6894 84.2941 54.3094 84.2941 52.7567V41.2123C84.2941 39.6596 85.3148 38.2795 86.81 37.8194L90.821 36.6118C91.5974 39.9472 91.9999 43.4263 91.9999 46.9916Z" fill="#E4E3FF"/>
<path d="M85.0274 22.6231L81.3326 24.6071C80.355 25.1247 79.2192 25.1534 78.2416 24.7221C77.8391 24.5496 77.4653 24.3052 77.149 23.9889L68.9975 15.8374C67.8905 14.7304 67.6461 13.0196 68.3793 11.6539L70.3633 7.95911C70.7371 8.20348 71.1252 8.43347 71.499 8.67793V8.69224C71.6572 8.79288 71.8154 8.90792 71.9735 9.00857C72.2323 9.18108 72.4766 9.36798 72.7354 9.55488C76.9035 12.4406 80.8658 16.5579 83.6904 20.6105C84.1504 21.2717 84.5961 21.9331 85.0274 22.6231Z" fill="#E4E3FF"/>
<path d="M23.7402 79.2093C24.1714 80.1869 24.1427 81.337 23.6251 82.3146L21.6412 86.0094C16.8177 82.9947 12.0659 78.6996 8.44348 73.5449C8.18472 73.2142 7.95464 72.8548 7.71027 72.5098C8.09846 72.7398 8.47227 72.9842 8.86037 73.2286C13.1015 75.8883 17.817 77.8723 22.8488 79.0224C23.1507 79.0943 23.4382 79.1517 23.7402 79.2093Z" fill="#D2D2F7"/>
<path d="M55.1672 87.7921L56.3749 91.8033C53.0395 92.5796 49.5604 92.9821 45.995 92.9821C42.4296 92.9821 38.9648 92.5796 35.6295 91.8033L36.8371 87.7921C37.2972 86.297 38.6773 85.2762 40.23 85.2762H51.76C53.327 85.2762 54.7072 86.297 55.1672 87.7921Z" fill="#D2D2F7"/>
<path d="M81.3326 69.3616L85.0274 71.3455C81.3182 77.2687 76.3008 82.3005 70.3633 86.0096L68.3793 82.3149C67.6461 80.9491 67.8905 79.2383 68.9975 78.1313L77.149 69.9797C78.256 68.8728 79.9525 68.6283 81.3326 69.3616Z" fill="#D2D2F7"/>
<path d="M72.2466 9.84235C72.0023 9.45416 71.7434 9.08035 71.499 8.69216V8.67786C71.6572 8.7785 71.8154 8.89345 71.9735 9.00849C72.2323 9.181 72.4766 9.3679 72.7354 9.55481C76.9035 12.4405 80.8658 16.5578 83.6904 20.6104C84.1504 21.2716 84.5961 21.933 85.0274 22.623L81.3326 24.607C80.355 25.1246 79.2192 25.1533 78.2416 24.7221C78.1698 24.4201 78.1123 24.1327 78.0404 23.8307C76.8902 18.7989 74.9063 14.0834 72.2466 9.84235Z" fill="#D2D2F7"/>
<path d="M91.9999 46.9916C91.9999 50.5571 91.5974 54.0218 90.821 57.3572L86.81 56.1495C85.3148 55.6894 84.2941 54.3094 84.2941 52.7567V41.2123C84.2941 39.6596 85.3148 38.2795 86.81 37.8194L90.821 36.6118C91.5974 39.9472 91.9999 43.4263 91.9999 46.9916Z" fill="#D2D2F7"/>
<path d="M46.0285 80.7326H46.0006C43.8015 80.7326 41.5977 80.52 39.4514 80.0994C38.8057 79.9722 38.3852 79.3467 38.5109 78.6996C38.6381 78.054 39.2667 77.6442 39.9107 77.7591C41.9065 78.1502 43.9551 78.3488 46.0006 78.3488C46.6586 78.3488 47.2064 78.8827 47.2064 79.5407C47.2064 80.1988 46.6865 80.7326 46.0285 80.7326ZM51.2089 79.1496C51.0801 78.504 51.4991 77.8755 52.1447 77.7482C54.1545 77.3478 56.1332 76.7472 58.0235 75.9619C58.635 75.7105 59.3302 75.9976 59.5817 76.6044C59.8346 77.2128 59.546 77.9096 58.9392 78.1626C56.903 79.0084 54.7737 79.6556 52.6103 80.0855C51.948 80.2153 51.3335 79.7812 51.2089 79.1496ZM33.1194 78.1874C31.0848 77.3463 29.1216 76.2987 27.2841 75.0742C26.7363 74.7095 26.5888 73.9692 26.9535 73.4214C27.3182 72.8751 28.057 72.7261 28.6064 73.0908C30.3135 74.2284 32.1386 75.203 34.0289 75.9837C34.6372 76.2351 34.9274 76.9319 34.676 77.5403C34.4283 78.1364 33.7445 78.4414 33.1194 78.1874ZM63.1154 74.7126C62.7492 74.1663 62.8951 73.4245 63.4414 73.0583C65.1454 71.916 66.7423 70.6031 68.1903 69.1551C68.6559 68.6895 69.4101 68.6895 69.8757 69.1551C70.3413 69.6207 70.3413 70.3749 69.8757 70.8405C68.3191 72.3971 66.6011 73.8094 64.7698 75.0385C64.2176 75.4067 63.4789 75.2553 63.1154 74.7126ZM22.1673 70.8824C20.6014 69.3227 19.186 67.6047 17.96 65.7796C17.5937 65.2333 17.7396 64.4931 18.2859 64.1252C18.8322 63.7574 19.5725 63.9049 19.9403 64.4512C21.0794 66.1474 22.3955 67.7428 23.8496 69.1939C24.3168 69.6595 24.3168 70.4137 23.8527 70.8793C23.3899 71.3452 22.6357 71.3477 22.1673 70.8824ZM72.4209 66.0559C71.8731 65.6896 71.7272 64.9493 72.0935 64.403C73.2341 62.6975 74.2103 60.8755 74.994 58.9867C75.2455 58.3768 75.9423 58.0913 76.5507 58.3427C77.159 58.5941 77.4477 59.2909 77.1947 59.8993C76.3536 61.9323 75.3029 63.8925 74.0737 65.7284C73.7076 66.2751 72.9671 66.4228 72.4209 66.0559ZM14.8282 59.9567C13.9808 57.9221 13.3305 55.7928 12.8991 53.6279C12.7703 52.9823 13.1893 52.3553 13.8349 52.2265C14.4619 52.0961 15.1075 52.5151 15.2363 53.1623C15.6383 55.1721 16.2404 57.1492 17.0288 59.038C17.2818 59.6463 16.9947 60.3447 16.3879 60.5977C15.768 60.8533 15.0777 60.5533 14.8282 59.9567ZM77.9458 54.5296C77.1979 54.5296 76.6279 53.8469 76.7757 53.1064C77.1714 51.1091 77.3716 49.0512 77.3716 46.9902C77.3716 46.3322 77.9055 45.73 78.5635 45.73C79.2215 45.73 79.7554 46.194 79.7554 46.8521V46.9902C79.7554 49.2064 79.5397 51.4195 79.1129 53.5689C79.0012 54.1369 78.503 54.5296 77.9458 54.5296ZM13.4376 48.2116C12.7796 48.2116 12.2457 47.7072 12.2457 47.0492V46.9902C12.2457 44.8004 12.4583 42.6059 12.8758 40.4674C13.0031 39.8233 13.6301 39.4105 14.2757 39.5269C14.9213 39.6541 15.3419 40.2796 15.2162 40.9267C14.8266 42.9132 14.6295 44.954 14.6295 46.9902C14.6295 47.6482 14.0956 48.2116 13.4376 48.2116ZM76.7493 40.7436C76.3427 38.7338 75.7343 36.7567 74.9444 34.8695C74.6899 34.2627 74.9754 33.5643 75.5822 33.3098C76.1937 33.0522 76.8874 33.3408 77.1419 33.9476C77.994 35.9807 78.6473 38.1069 79.0865 40.2687C79.2169 40.9143 78.7994 41.5429 78.1554 41.6748C77.4848 41.8037 76.8769 41.3713 76.7493 40.7436ZM15.4272 35.692C14.8189 35.4406 14.5286 34.7438 14.7801 34.1354C15.6197 32.0993 16.6657 30.1345 17.8902 28.2985C18.2549 27.7523 18.9936 27.6033 19.543 27.968C20.0908 28.3327 20.2383 29.073 19.8735 29.6208C18.736 31.3264 17.7645 33.1515 16.9838 35.0449C16.7383 35.6407 16.0529 35.9462 15.4272 35.692ZM73.0138 29.9886C72.6304 29.9886 72.2549 29.8055 72.0252 29.4641C70.8767 27.7647 69.5576 26.1724 68.1034 24.7275C67.6363 24.2635 67.6332 23.5092 68.0972 23.0421C68.5612 22.575 69.3155 22.5719 69.7826 23.0359C71.347 24.5894 72.7654 26.3027 73.9992 28.1294C74.3686 28.6757 74.2243 29.4159 73.6795 29.7838C73.4747 29.9219 73.2435 29.9886 73.0138 29.9886ZM22.0789 24.8641C21.6133 24.4001 21.6102 23.6458 22.0758 23.1787C23.6293 21.6174 25.3442 20.202 27.1739 18.9698C27.7233 18.6004 28.4636 18.7479 28.8283 19.2926C29.1961 19.8389 29.0518 20.5792 28.5055 20.947C26.8045 22.0923 25.2091 23.4084 23.7643 24.861C23.2968 25.3285 22.5425 25.3278 22.0789 24.8641ZM63.3374 20.8414C61.6256 19.7054 59.8005 18.7355 57.9102 17.9579C57.3018 17.7081 57.0101 17.0128 57.2615 16.4029C57.5129 15.793 58.2113 15.5012 58.8166 15.7542C60.8496 16.5891 62.8144 17.632 64.6565 18.855C65.2044 19.2197 65.3534 19.9584 64.9902 20.5078C64.6262 21.0537 63.8867 21.2062 63.3374 20.8414ZM32.3559 17.3899C32.1029 16.7831 32.3884 16.0847 32.9968 15.8302C35.033 14.9797 37.1622 14.3279 39.3225 13.8949C39.9635 13.763 40.5967 14.182 40.7255 14.8292C40.8543 15.4748 40.4368 16.1033 39.7912 16.2322C37.7846 16.6341 35.8074 17.2394 33.9156 18.0309C33.3163 18.2805 32.6143 18.0047 32.3559 17.3899ZM52.0252 16.198C50.0543 15.8131 48.0274 15.6191 46.0006 15.6191C45.3425 15.6191 44.7606 15.0853 44.7606 14.4272C44.7606 13.7692 45.2448 13.2354 45.9028 13.2354H46.0006C48.1795 13.2354 50.36 13.4449 52.4815 13.8577C53.1271 13.9834 53.5492 14.6104 53.4235 15.256C53.3025 15.873 52.7123 16.3217 52.0252 16.198Z" fill="white"/>
<path d="M56.3749 2.16546L55.1672 6.17649C54.7072 7.67171 53.327 8.69239 51.76 8.69239H40.23C38.6773 8.69239 37.2972 7.67171 36.8371 6.17649L35.6295 2.16546C38.9648 1.38916 42.4296 0.986572 45.995 0.986572C49.5604 0.986572 53.0395 1.38916 56.3749 2.16546Z" fill="#E4E3FF"/>
<path d="M23.0068 15.8374L14.8409 23.9889C13.7339 25.0959 12.0375 25.3403 10.6717 24.6071L6.96253 22.6231C10.6717 16.7 15.7035 11.6682 21.641 7.95911L23.625 11.6539C24.3582 13.0196 24.0995 14.7304 23.0068 15.8374Z" fill="#E4E3FF"/>
<path d="M7.71023 41.2121V52.7564C7.71023 54.3091 6.68946 55.6892 5.19433 56.1493L1.16891 57.3713C0.392607 54.0359 -0.00997925 50.5568 -0.00997925 46.9914C-0.00997925 43.4116 0.392607 39.9325 1.16891 36.5972L5.19433 37.8191C6.68946 38.2792 7.71023 39.6594 7.71023 41.2121Z" fill="#E4E3FF"/>
<path d="M71.461 46.9758C71.461 61.0444 60.0545 72.4508 45.986 72.4508C31.9343 72.4508 20.5279 61.0444 20.5279 46.9758C20.5279 32.9242 31.9343 21.5177 45.986 21.5177C60.0545 21.5177 71.461 32.9242 71.461 46.9758Z" fill="white"/>
</svg>
