<svg width="100" height="102" viewBox="0 0 100 102" fill="none" xmlns="http://www.w3.org/2000/svg">
<g filter="url(#filter0_ddd_12_114)">
<path d="M49.5077 56.441C49.7471 56.718 50.1671 56.7281 50.4391 56.483C50.6445 56.2979 50.8451 56.1079 51.042 55.9112C51.09 55.8635 51.1381 55.8157 51.1877 55.7666C51.3472 55.6081 51.5065 55.4494 51.6657 55.2907C51.7807 55.1763 51.8957 55.062 52.0107 54.9477C52.3869 54.5737 52.7627 54.1992 53.1384 53.8246C53.2683 53.6952 53.3981 53.5658 53.528 53.4363C54.0685 52.8977 54.6088 52.3589 55.1488 51.8197C55.9203 51.0496 56.6924 50.2802 57.4655 49.5118C58.0105 48.97 58.5547 48.4275 59.0983 47.8843C59.4223 47.5606 59.7467 47.2372 60.0719 46.9147C60.3781 46.6109 60.6834 46.3062 60.9879 46.0007C61.0991 45.8894 61.2107 45.7785 61.3227 45.668C62.9462 44.0645 64.0211 42.0973 64.0657 39.7725C64.0742 37.7957 63.4842 35.9581 62.2328 34.4061C62.177 34.3367 62.1212 34.2674 62.0638 34.1959C60.797 32.7068 58.9695 31.7789 57.0408 31.5217C54.6556 31.3474 52.5481 31.844 50.7053 33.412C50.6341 33.4756 50.5629 33.5393 50.4896 33.6048C50.2471 33.7966 49.8885 33.7882 49.665 33.5746C49.6221 33.5335 49.5775 33.4865 49.5258 33.4326C48.0479 32.0425 46.0903 31.3769 44.0814 31.3311C41.7258 31.4096 39.6799 32.3184 38.0414 34.0156C36.5464 35.6791 35.9118 37.8326 36.0098 40.0393C36.0919 41.1776 36.4131 42.2138 36.9321 43.2243C36.9762 43.3122 37.0202 43.4002 37.0657 43.4908C37.6175 44.5125 38.4939 45.2913 39.3136 46.0973C39.3704 46.1534 39.4271 46.2094 39.4856 46.2671C39.5355 46.316 39.5854 46.365 39.6368 46.4154C39.7851 46.5704 39.9239 46.728 40.063 46.8909C40.4377 47.3199 40.8404 47.7198 41.2441 48.1212C41.3285 48.2055 41.4129 48.2898 41.4973 48.3741C41.6779 48.5544 41.8585 48.7345 42.0393 48.9146C42.3257 49.1999 42.6118 49.4855 42.8978 49.7711C43.5565 50.4288 44.2156 51.0861 44.8748 51.7435C45.4793 52.3463 46.0838 52.9493 46.6879 53.5526C46.9717 53.836 47.2557 54.1192 47.5399 54.4022C47.7172 54.5789 47.8943 54.7557 48.0713 54.9326C48.1529 55.014 48.2345 55.0953 48.3162 55.1766C48.7281 55.5863 49.1306 55.9988 49.5077 56.441Z" fill="url(#paint0_linear_12_114)"/>
<path d="M51.3132 54.9361L51.3127 54.9365C51.1535 55.0953 50.9946 55.2536 50.8355 55.4117C50.8354 55.4117 50.8354 55.4118 50.8354 55.4118L50.6897 55.5563L50.6886 55.5575C50.498 55.7479 50.3036 55.932 50.1043 56.1116C50.0239 56.1841 49.9284 56.1623 49.8867 56.1148C49.8865 56.1146 49.8863 56.1143 49.8861 56.1141L51.3132 54.9361ZM51.3132 54.9361L51.6581 54.5932C51.6582 54.5931 51.6582 54.5931 51.6582 54.5931C52.0342 54.2193 52.4097 53.845 52.7854 53.4705L52.7854 53.4705M51.3132 54.9361L52.7854 53.4705M52.7854 53.4705L53.175 53.0822C53.7154 52.5436 54.2557 52.0049 54.7956 51.4659L55.1488 51.8197L54.7956 51.4659C55.5672 50.6956 56.3396 49.9259 57.113 49.1572C57.6577 48.6158 58.2015 48.0735 58.7449 47.5306L58.7449 47.5306M52.7854 53.4705L58.7449 47.5306M58.7449 47.5306C59.0691 47.2066 59.394 46.8828 59.7198 46.5597C60.0252 46.2567 60.3298 45.9526 60.6338 45.6477L60.6343 45.6472M58.7449 47.5306L60.6343 45.6472M60.6343 45.6472C60.7462 45.5352 60.8586 45.4236 60.9713 45.3123C62.5264 43.7764 63.5231 41.9278 63.5658 39.7666C63.573 37.897 63.0165 36.1747 61.8435 34.72L61.8431 34.7194M60.6343 45.6472L61.8431 34.7194M61.8431 34.7194L61.6785 34.5147C60.502 33.1345 58.7987 32.2641 56.9894 32.0192C54.7131 31.8556 52.7507 32.3302 51.0339 33.7889L50.8229 33.9776L50.8116 33.9876M61.8431 34.7194L50.8116 33.9876M50.8116 33.9876L50.7998 33.997M50.8116 33.9876L50.7998 33.997M50.7998 33.997C50.3715 34.3357 49.7323 34.3305 49.3195 33.936L49.665 33.5746M50.7998 33.997L49.665 33.5746M49.665 33.5746L49.3195 33.936C49.2744 33.8928 49.2279 33.8443 49.186 33.8007C49.182 33.7965 49.178 33.7924 49.1741 33.7883C47.806 32.5062 45.9834 31.8775 44.084 31.8313C41.8672 31.9085 39.9513 32.7602 38.4074 34.3564C37.0191 35.905 36.4176 37.9185 36.509 40.0102C36.5864 41.07 36.8854 42.039 37.3768 42.9958L37.3769 42.9958M49.665 33.5746L37.3769 42.9958M37.3769 42.9958L37.3791 43.0002M37.3769 42.9958L37.3791 43.0002M37.3791 43.0002L37.5091 43.2598C37.9509 44.0744 38.6161 44.721 39.3402 45.4247C39.4471 45.5286 39.5553 45.6337 39.6642 45.7408L39.6649 45.7415M37.3791 43.0002L39.6649 45.7415M39.6649 45.7415L39.8357 45.9101L39.8369 45.9113L39.9869 46.0585L39.9925 46.064M39.6649 45.7415L39.9925 46.064M39.9925 46.064L39.998 46.0697M39.9925 46.064L39.998 46.0697M39.998 46.0697C40.1548 46.2335 40.2998 46.3983 40.4413 46.5639C40.8004 46.9748 41.1877 47.36 41.5911 47.7611L41.5967 47.7667L41.5973 47.7673M39.998 46.0697L41.5973 47.7673M41.5973 47.7673L41.8506 48.0203C42.031 48.2004 42.2115 48.3804 42.3922 48.5604L42.3922 48.5604M41.5973 47.7673L42.3922 48.5604M42.3922 48.5604C42.6788 48.8459 42.965 49.1316 43.2511 49.4173L42.3922 48.5604ZM47.8928 54.0481L47.8927 54.048C47.6087 53.7651 47.3248 53.482 47.0412 53.1988L47.8928 54.0481ZM47.8928 54.0481C48.0703 54.2249 48.2475 54.4018 48.4245 54.5787L47.8928 54.0481ZM43.2511 49.4173C43.9097 50.0749 44.5687 50.7321 45.2278 51.3894L44.8748 51.7435L45.2279 51.3894C45.8324 51.9923 46.437 52.5954 47.0412 53.1988L43.2511 49.4173Z" stroke="url(#paint1_linear_12_114)"/>
</g>
<g filter="url(#filter1_ddd_12_114)">
<mask id="path-3-inside-1_12_114" fill="white">
<path fill-rule="evenodd" clip-rule="evenodd" d="M50.1601 32.5134C49.9977 32.5281 49.8113 32.3931 49.724 32.1675C49.1241 30.6165 48.397 29.1471 47.5052 27.7308L47.3016 27.4132L47.11 27.1141C46.7837 26.6128 47.2017 26 47.7999 26H49.0587H52.1705H52.5203C53.1184 26 53.5366 26.6128 53.2103 27.1141L53.0187 27.4132L52.815 27.7308C51.9232 29.1471 51.1961 30.6165 50.5962 32.1675C50.5089 32.3931 50.3225 32.5281 50.1601 32.5134Z"/>
</mask>
<path fill-rule="evenodd" clip-rule="evenodd" d="M50.1601 32.5134C49.9977 32.5281 49.8113 32.3931 49.724 32.1675C49.1241 30.6165 48.397 29.1471 47.5052 27.7308L47.3016 27.4132L47.11 27.1141C46.7837 26.6128 47.2017 26 47.7999 26H49.0587H52.1705H52.5203C53.1184 26 53.5366 26.6128 53.2103 27.1141L53.0187 27.4132L52.815 27.7308C51.9232 29.1471 51.1961 30.6165 50.5962 32.1675C50.5089 32.3931 50.3225 32.5281 50.1601 32.5134Z" fill="url(#paint2_linear_12_114)"/>
<path d="M49.724 32.1675L48.7914 32.5282L48.7914 32.5282L49.724 32.1675ZM50.1601 32.5134L50.0705 31.5175L50.1601 31.5094L50.2498 31.5175L50.1601 32.5134ZM47.5052 27.7308L48.347 27.191L48.3514 27.1979L47.5052 27.7308ZM47.3016 27.4132L46.4598 27.953L46.4595 27.9526L47.3016 27.4132ZM47.11 27.1141L47.9481 26.5686L47.952 26.5747L47.11 27.1141ZM53.2103 27.1141L52.3682 26.5746L52.3722 26.5686L53.2103 27.1141ZM53.0187 27.4132L53.8607 27.9526L53.8605 27.953L53.0187 27.4132ZM52.815 27.7308L51.9688 27.1979L51.9732 27.191L52.815 27.7308ZM50.5962 32.1675L51.5289 32.5282V32.5282L50.5962 32.1675ZM50.6567 31.8067C50.6394 31.7621 50.6022 31.6987 50.5253 31.6392C50.4545 31.5846 50.2979 31.497 50.0705 31.5175L50.2498 33.5094C49.4855 33.5782 48.9743 33.001 48.7914 32.5282L50.6567 31.8067ZM48.3514 27.1979C49.2795 28.6718 50.035 30.1994 50.6567 31.8067L48.7914 32.5282C48.2133 31.0337 47.5145 29.6223 46.659 28.2636L48.3514 27.1979ZM48.1434 26.8734L48.347 27.191L46.6634 28.2705L46.4598 27.953L48.1434 26.8734ZM47.952 26.5747L48.1436 26.8738L46.4595 27.9526L46.2679 27.6535L47.952 26.5747ZM47.7999 27C47.8481 27 47.9081 26.9742 47.9499 26.9091C47.9723 26.8742 47.9943 26.8199 47.9958 26.7493C47.9973 26.6737 47.9744 26.6091 47.9481 26.5686L46.2718 27.6596C45.8737 27.0479 45.9367 26.3433 46.2666 25.8291C46.5854 25.3322 47.1535 25 47.7999 25V27ZM49.0587 27H47.7999V25H49.0587V27ZM49.0587 25H52.1705V27H49.0587V25ZM52.1705 25H52.5203V27H52.1705V25ZM52.5203 25C53.1666 25 53.7347 25.3322 54.0535 25.829C54.3835 26.3431 54.4466 27.0478 54.0484 27.6596L52.3722 26.5686C52.3458 26.6091 52.3229 26.6737 52.3245 26.7494C52.3259 26.82 52.348 26.8743 52.3703 26.9092C52.4121 26.9742 52.4721 27 52.5203 27V25ZM54.0523 27.6535L53.8607 27.9526L52.1767 26.8738L52.3683 26.5747L54.0523 27.6535ZM53.8605 27.953L53.6569 28.2705L51.9732 27.191L52.1769 26.8734L53.8605 27.953ZM53.6612 28.2636C52.8057 29.6223 52.107 31.0337 51.5289 32.5282L49.6636 31.8067C50.2853 30.1994 51.0407 28.6718 51.9688 27.1979L53.6612 28.2636ZM51.5289 32.5282C51.346 33.001 50.8347 33.5782 50.0705 33.5094L50.2498 31.5175C50.0223 31.497 49.8657 31.5846 49.795 31.6392C49.718 31.6987 49.6808 31.7621 49.6636 31.8067L51.5289 32.5282Z" fill="url(#paint3_linear_12_114)" mask="url(#path-3-inside-1_12_114)"/>
</g>
<defs>
<filter id="filter0_ddd_12_114" x="0.799999" y="6.13105" width="98.4658" height="95.7271" filterUnits="userSpaceOnUse" color-interpolation-filters="sRGB">
<feFlood flood-opacity="0" result="BackgroundImageFix"/>
<feColorMatrix in="SourceAlpha" type="matrix" values="0 0 0 0 0 0 0 0 0 0 0 0 0 0 0 0 0 0 127 0" result="hardAlpha"/>
<feOffset dy="10"/>
<feGaussianBlur stdDeviation="17.6"/>
<feComposite in2="hardAlpha" operator="out"/>
<feColorMatrix type="matrix" values="0 0 0 0 1 0 0 0 0 0.760784 0 0 0 0 0.00784314 0 0 0 0.25 0"/>
<feBlend mode="normal" in2="BackgroundImageFix" result="effect1_dropShadow_12_114"/>
<feColorMatrix in="SourceAlpha" type="matrix" values="0 0 0 0 0 0 0 0 0 0 0 0 0 0 0 0 0 0 127 0" result="hardAlpha"/>
<feOffset dy="3"/>
<feComposite in2="hardAlpha" operator="out"/>
<feColorMatrix type="matrix" values="0 0 0 0 0.781901 0 0 0 0 0.364887 0 0 0 0 0 0 0 0 1 0"/>
<feBlend mode="normal" in2="effect1_dropShadow_12_114" result="effect2_dropShadow_12_114"/>
<feColorMatrix in="SourceAlpha" type="matrix" values="0 0 0 0 0 0 0 0 0 0 0 0 0 0 0 0 0 0 127 0" result="hardAlpha"/>
<feOffset dy="2"/>
<feGaussianBlur stdDeviation="2"/>
<feComposite in2="hardAlpha" operator="out"/>
<feColorMatrix type="matrix" values="0 0 0 0 0.943012 0 0 0 0 0.52835 0 0 0 0 0.165027 0 0 0 1 0"/>
<feBlend mode="normal" in2="effect2_dropShadow_12_114" result="effect3_dropShadow_12_114"/>
<feBlend mode="normal" in="SourceGraphic" in2="effect3_dropShadow_12_114" result="shape"/>
</filter>
<filter id="filter1_ddd_12_114" x="11.7958" y="0.799999" width="76.7285" height="76.9145" filterUnits="userSpaceOnUse" color-interpolation-filters="sRGB">
<feFlood flood-opacity="0" result="BackgroundImageFix"/>
<feColorMatrix in="SourceAlpha" type="matrix" values="0 0 0 0 0 0 0 0 0 0 0 0 0 0 0 0 0 0 127 0" result="hardAlpha"/>
<feOffset dy="10"/>
<feGaussianBlur stdDeviation="17.6"/>
<feComposite in2="hardAlpha" operator="out"/>
<feColorMatrix type="matrix" values="0 0 0 0 1 0 0 0 0 0.760784 0 0 0 0 0.00784314 0 0 0 0.25 0"/>
<feBlend mode="normal" in2="BackgroundImageFix" result="effect1_dropShadow_12_114"/>
<feColorMatrix in="SourceAlpha" type="matrix" values="0 0 0 0 0 0 0 0 0 0 0 0 0 0 0 0 0 0 127 0" result="hardAlpha"/>
<feOffset dy="3"/>
<feComposite in2="hardAlpha" operator="out"/>
<feColorMatrix type="matrix" values="0 0 0 0 0.781901 0 0 0 0 0.364887 0 0 0 0 0 0 0 0 1 0"/>
<feBlend mode="normal" in2="effect1_dropShadow_12_114" result="effect2_dropShadow_12_114"/>
<feColorMatrix in="SourceAlpha" type="matrix" values="0 0 0 0 0 0 0 0 0 0 0 0 0 0 0 0 0 0 127 0" result="hardAlpha"/>
<feOffset dy="2"/>
<feGaussianBlur stdDeviation="2"/>
<feComposite in2="hardAlpha" operator="out"/>
<feColorMatrix type="matrix" values="0 0 0 0 0.943012 0 0 0 0 0.52835 0 0 0 0 0.165027 0 0 0 1 0"/>
<feBlend mode="normal" in2="effect2_dropShadow_12_114" result="effect3_dropShadow_12_114"/>
<feBlend mode="normal" in="SourceGraphic" in2="effect3_dropShadow_12_114" result="shape"/>
</filter>
<linearGradient id="paint0_linear_12_114" x1="47.8077" y1="55.8392" x2="46.9302" y2="33.4953" gradientUnits="userSpaceOnUse">
<stop stop-color="#FFC202"/>
<stop offset="1" stop-color="#FEA602"/>
</linearGradient>
<linearGradient id="paint1_linear_12_114" x1="37.6467" y1="55.484" x2="64.9254" y2="54.4707" gradientUnits="userSpaceOnUse">
<stop stop-color="#FFA101"/>
<stop offset="1" stop-color="#FFBC02"/>
</linearGradient>
<linearGradient id="paint2_linear_12_114" x1="50.7324" y1="32.5779" x2="50.9781" y2="26.5817" gradientUnits="userSpaceOnUse">
<stop stop-color="#FFC202"/>
<stop offset="1" stop-color="#FEA602"/>
</linearGradient>
<linearGradient id="paint3_linear_12_114" x1="53.3456" y1="32.4826" x2="46.3292" y2="32.2329" gradientUnits="userSpaceOnUse">
<stop stop-color="#FFA101"/>
<stop offset="1" stop-color="#FFBC02"/>
</linearGradient>
</defs>
</svg>
