<svg width="15" height="24" viewBox="0 0 15 24" fill="none" xmlns="http://www.w3.org/2000/svg">
<path d="M6.60125 0.00473253C6.66526 0.00425499 6.66526 0.00425499 6.73057 0.0037678C8.51108 -0.00650064 8.51108 -0.00650063 9.25591 0.14918C9.30131 0.158379 9.34671 0.167579 9.39349 0.177057C10.4745 0.401559 11.5003 0.78015 12.4126 1.41186C12.455 1.44081 12.4974 1.46976 12.541 1.49959C13.838 2.42574 14.6489 3.82561 14.9168 5.38427C14.9793 5.77968 15.0005 6.16684 15 6.56688C15 6.61349 15 6.61349 14.9999 6.66104C14.9928 8.6428 14.2721 10.4788 12.8861 11.8995C12.8489 11.9357 12.8117 11.972 12.7734 12.0094C12.747 12.0378 12.7206 12.0662 12.6934 12.0955C11.7402 13.1001 10.3535 13.7411 9.03043 14.0838C9.00067 14.0838 8.9709 14.0838 8.94024 14.0838C8.93326 14.1647 8.93326 14.1647 8.92615 14.2473C8.8111 15.2697 8.8111 15.2697 8.40244 15.597C7.82092 16.0022 7.06457 16.1524 6.36731 16.0472C5.7293 15.9064 5.2583 15.5637 4.87686 15.0343C4.53927 14.4902 4.44029 13.8965 4.3515 13.2733C4.335 13.1577 4.3178 13.0422 4.30048 12.9267C4.24259 12.535 4.19268 12.143 4.15286 11.749C4.14917 11.7126 4.14549 11.6762 4.14169 11.6387C4.0586 10.7767 4.0586 10.7767 4.1693 10.6293C4.2734 10.5483 4.34958 10.5388 4.47998 10.5216C4.52601 10.515 4.57205 10.5085 4.61947 10.5018C4.69343 10.4919 4.69343 10.4919 4.76888 10.4818C6.16456 10.2744 7.64762 9.81442 8.52752 8.63326C8.72767 8.34929 8.8723 8.05297 8.98533 7.72528C8.99638 7.69447 9.00742 7.66366 9.0188 7.63192C9.14878 7.20637 9.109 6.73477 8.94024 6.32731C8.89727 6.25091 8.85304 6.17511 8.80495 6.10183C8.80495 6.07207 8.80495 6.0423 8.80495 6.01164C8.77984 6.00048 8.75473 5.98932 8.72885 5.97782C8.62457 5.92145 8.62457 5.92145 8.5231 5.83689C7.88869 5.34666 6.99334 5.31018 6.2248 5.3995C5.44719 5.51037 4.72103 5.80216 4.02433 6.15503C3.33932 6.49932 2.6409 6.60845 1.89824 6.37223C1.332 6.13126 0.997265 5.72783 0.642607 5.24501C0.611158 5.20263 0.579709 5.16025 0.547307 5.11659C0.121954 4.52729 -0.0474145 3.94999 0.0112656 3.2157C0.0411045 3.04315 0.0855219 2.88363 0.146553 2.71964C0.158063 2.68837 0.169573 2.65709 0.181432 2.62487C0.443514 2.02136 0.996689 1.71655 1.54452 1.41186C1.58078 1.3916 1.61703 1.37133 1.65438 1.35045C2.11611 1.09455 2.5802 0.868551 3.07778 0.69033C3.12366 0.673621 3.12366 0.673621 3.17046 0.656574C4.00426 0.355645 4.8592 0.16681 5.73844 0.0589884C5.76714 0.055249 5.79585 0.0515095 5.82543 0.0476567C6.08463 0.015879 6.34025 0.00602783 6.60125 0.00473253Z" fill="url(#paint0_linear_1_160)"/>
<path d="M5.92232 17.8027C5.97615 17.8026 6.02998 17.8024 6.08545 17.8022C6.19837 17.8021 6.3113 17.8024 6.42423 17.8032C6.59552 17.8041 6.76673 17.8032 6.93803 17.802C7.04854 17.8022 7.15904 17.8024 7.26955 17.8027C7.31993 17.8024 7.3703 17.802 7.4222 17.8016C8.03481 17.8088 8.59206 17.9966 9.04397 18.4191C9.57087 18.9834 9.68683 19.6152 9.68009 20.3686C9.67936 20.4647 9.68009 20.5608 9.68095 20.657C9.68211 21.4084 9.52911 21.9912 9.00944 22.5454C8.51246 23.0115 7.99532 23.1241 7.33191 23.1225C7.27378 23.1227 7.21564 23.1229 7.15574 23.1232C7.03332 23.1236 6.91091 23.1235 6.78849 23.123C6.63314 23.1225 6.47784 23.1234 6.3225 23.1247C6.17231 23.1258 6.02213 23.1255 5.87193 23.1253C5.81696 23.1258 5.76198 23.1263 5.70534 23.1268C5.13472 23.1222 4.69312 22.9674 4.25095 22.6069C4.20788 22.573 4.20788 22.573 4.16393 22.5385C3.80262 22.2206 3.5668 21.681 3.52038 21.2067C3.51617 21.1109 3.51456 21.0154 3.51427 20.9195C3.51397 20.8843 3.51367 20.8492 3.51336 20.813C3.51291 20.7391 3.51269 20.6651 3.51271 20.5912C3.51251 20.4799 3.51087 20.3688 3.50916 20.2576C3.50421 19.5663 3.6427 18.9461 4.12694 18.4242C4.63106 17.9564 5.24855 17.7979 5.92232 17.8027Z" fill="url(#paint1_linear_1_160)"/>
<defs>
<linearGradient id="paint0_linear_1_160" x1="7.5" y1="0" x2="7.5" y2="16.0797" gradientUnits="userSpaceOnUse">
<stop stop-color="white"/>
<stop offset="1" stop-color="white" stop-opacity="0.57"/>
</linearGradient>
<linearGradient id="paint1_linear_1_160" x1="6.59499" y1="17.8016" x2="6.59499" y2="23.1268" gradientUnits="userSpaceOnUse">
<stop stop-color="white"/>
<stop offset="1" stop-color="white" stop-opacity="0.57"/>
</linearGradient>
</defs>
</svg>
