<svg width="64" height="65" viewBox="0 0 64 65" fill="none" xmlns="http://www.w3.org/2000/svg">
<path d="M64 32.7519C64 35.232 63.72 37.642 63.18 39.962C62.38 43.462 61 46.7419 59.15 49.6919C56.57 53.8119 53.08 57.3119 48.95 59.892C46 61.7419 42.72 63.1219 39.22 63.922C36.9 64.462 34.48 64.7419 32 64.7419C29.52 64.7419 27.11 64.462 24.79 63.922C21.29 63.1219 18.01 61.7419 15.06 59.892C10.93 57.3119 7.42999 53.8119 4.84997 49.6919C3 46.7419 1.63 43.462 0.820007 39.972C0.280029 37.652 0 35.232 0 32.7519C0 30.262 0.280029 27.842 0.820007 25.522C1.63 22.032 3 18.7519 4.84997 15.8019C7.42999 11.6819 10.93 8.18194 15.06 5.60199C18.01 3.75195 21.29 2.37195 24.79 1.57196C27.11 1.03198 29.52 0.751953 32 0.751953C34.48 0.751953 36.9 1.03198 39.22 1.57196C42.72 2.37195 46 3.75195 48.95 5.60199C53.08 8.18194 56.57 11.6819 59.15 15.8019C61 18.7519 62.38 22.032 63.18 25.532C63.72 27.852 64 30.272 64 32.7519Z" fill="#C5120C"/>
<path d="M64 32.7519C64 35.2319 63.72 37.6419 63.18 39.9619C62.38 43.4619 61 46.7419 59.15 49.6919C56.57 53.8119 53.08 57.3119 48.95 59.8919C46 61.7419 42.72 63.1219 39.22 63.9219C36.9 64.4619 34.48 64.7419 32 64.7419C29.52 64.7419 27.11 64.4619 24.79 63.9219C21.29 63.1219 18.01 61.7419 15.06 59.8919C11.2 57.4819 7.89003 54.2619 5.36 50.4919C5.63002 50.6619 5.90004 50.8319 6.17 51.0019C9.12001 52.8519 12.4 54.2319 15.9 55.0319C18.22 55.5719 20.63 55.8519 23.11 55.8519C25.59 55.8519 28.01 55.5719 30.33 55.0319C44.4605 51.8021 55.11 39.0865 55.11 23.8619C55.11 21.3819 54.83 18.9619 54.29 16.6419C53.49 13.1419 52.11 9.86188 50.26 6.91193C50.09 6.64191 49.91 6.37189 49.74 6.10193C53.52 8.6319 56.74 11.9419 59.15 15.8019C61 18.7519 62.38 22.0319 63.18 25.5319C63.72 27.8519 64 30.2719 64 32.7519Z" fill="#F33B3B"/>
<path d="M16.44 57.322L15.0599 59.892C11.7049 57.7951 8.39962 54.8075 5.87996 51.222C5.69996 50.992 5.53993 50.742 5.36995 50.502C5.19996 50.232 5.01997 49.962 4.84993 49.692L7.42994 48.312C8.37996 47.802 9.55995 47.972 10.33 48.742L16.01 54.412C16.2299 54.632 16.4 54.882 16.52 55.162C16.82 55.842 16.7999 56.642 16.44 57.322Z" fill="#E4E3FF"/>
<path d="M39.22 63.922C36.9 64.462 34.48 64.7419 32 64.7419C29.52 64.7419 27.11 64.462 24.79 63.922L25.63 61.132C25.95 60.092 26.91 59.382 27.99 59.382H36.01C37.1 59.382 38.06 60.092 38.38 61.132L39.22 63.922Z" fill="#E4E3FF"/>
<path d="M59.15 49.692C56.57 53.812 53.08 57.312 48.95 59.892L47.57 57.322C47.06 56.372 47.23 55.182 48 54.412L53.67 48.742C54.44 47.972 55.62 47.802 56.58 48.312L59.15 49.692Z" fill="#E4E3FF"/>
<path d="M63.9999 32.7521C63.9999 35.2321 63.72 37.6421 63.1799 39.9621L60.39 39.1221C59.3499 38.8021 58.64 37.8421 58.64 36.7621V28.7321C58.64 27.6521 59.3499 26.6921 60.39 26.3721L63.1799 25.5321C63.72 27.8521 63.9999 30.2721 63.9999 32.7521Z" fill="#E4E3FF"/>
<path d="M59.15 15.8019L56.58 17.1819C55.9 17.5419 55.11 17.5619 54.43 17.2619C54.15 17.1419 53.89 16.9719 53.67 16.7519L48 11.0819C47.23 10.3119 47.06 9.12189 47.57 8.17194L48.95 5.60193C49.21 5.77191 49.48 5.93188 49.74 6.10193V6.11188C49.85 6.18188 49.96 6.2619 50.07 6.33191C50.25 6.4519 50.42 6.58191 50.6 6.71191C53.4992 8.71916 56.2553 11.5831 58.22 14.4019C58.54 14.8619 58.85 15.3219 59.15 15.8019Z" fill="#E4E3FF"/>
<path d="M16.52 55.1619C16.82 55.8419 16.8 56.6418 16.44 57.3218L15.06 59.8918C11.705 57.7949 8.3997 54.8074 5.88004 51.2219C5.70004 50.9918 5.54001 50.7418 5.37003 50.5018C5.64005 50.6619 5.90005 50.8318 6.17001 51.0018C9.12002 52.8519 12.4001 54.2319 15.9001 55.0319C16.11 55.0818 16.31 55.1218 16.52 55.1619Z" fill="#D2D2F7"/>
<path d="M38.38 61.132L39.22 63.922C36.9 64.462 34.48 64.7419 32 64.7419C29.52 64.7419 27.11 64.462 24.79 63.922L25.63 61.132C25.95 60.092 26.91 59.382 27.99 59.382H36.01C37.1 59.382 38.06 60.092 38.38 61.132Z" fill="#D2D2F7"/>
<path d="M56.58 48.312L59.15 49.692C56.57 53.812 53.08 57.312 48.95 59.892L47.57 57.322C47.06 56.372 47.23 55.182 48 54.412L53.67 48.742C54.44 47.972 55.62 47.802 56.58 48.312Z" fill="#D2D2F7"/>
<path d="M50.26 6.91193C50.09 6.64191 49.91 6.3819 49.74 6.11188V6.10193C49.85 6.17194 49.96 6.25189 50.07 6.33191C50.25 6.4519 50.42 6.58191 50.6 6.71191C53.4992 8.71916 56.2553 11.5831 58.22 14.4019C58.54 14.8619 58.85 15.3219 59.15 15.8019L56.58 17.1819C55.9 17.5419 55.11 17.5619 54.43 17.2619C54.38 17.0519 54.34 16.8519 54.29 16.6419C53.49 13.1419 52.11 9.86188 50.26 6.91193Z" fill="#D2D2F7"/>
<path d="M63.9999 32.7521C63.9999 35.2321 63.72 37.6421 63.1799 39.9621L60.39 39.1221C59.3499 38.8021 58.64 37.8421 58.64 36.7621V28.7321C58.64 27.6521 59.3499 26.6921 60.39 26.3721L63.1799 25.5321C63.72 27.8521 63.9999 30.2721 63.9999 32.7521Z" fill="#D2D2F7"/>
<path d="M32.0233 56.2215H32.0039C30.4742 56.2215 28.9413 56.0736 27.4484 55.7811C26.9993 55.6925 26.7068 55.2575 26.7942 54.8074C26.8827 54.3583 27.3199 54.0733 27.7679 54.1532C29.1562 54.4252 30.5811 54.5634 32.0039 54.5634C32.4616 54.5634 32.8426 54.9347 32.8426 55.3924C32.8426 55.8502 32.481 56.2215 32.0233 56.2215ZM35.6267 55.1204C35.5371 54.6713 35.8285 54.2341 36.2776 54.1456C37.6756 53.8671 39.0519 53.4493 40.3668 52.9031C40.7921 52.7282 41.2757 52.928 41.4506 53.35C41.6265 53.7732 41.4257 54.2579 41.0037 54.4338C39.5874 55.0222 38.1063 55.4723 36.6015 55.7713C36.1408 55.8617 35.7133 55.5597 35.6267 55.1204ZM23.044 54.4511C21.6288 53.866 20.2633 53.1374 18.9851 52.2856C18.6041 52.032 18.5015 51.517 18.7552 51.136C19.0089 50.756 19.5227 50.6524 19.9049 50.9061C21.0923 51.6973 22.3618 52.3752 23.6766 52.9182C24.0998 53.0931 24.3017 53.5778 24.1268 54.001C23.9545 54.4156 23.4788 54.6278 23.044 54.4511ZM43.9086 52.0341C43.6538 51.6541 43.7553 51.1381 44.1353 50.8834C45.3206 50.0889 46.4314 49.1756 47.4385 48.1684C47.7624 47.8446 48.287 47.8446 48.6109 48.1684C48.9347 48.4923 48.9347 49.0169 48.6109 49.3408C47.5281 50.4235 46.3331 51.4059 45.0593 52.2608C44.6752 52.5169 44.1614 52.4116 43.9086 52.0341ZM15.426 49.3699C14.3368 48.285 13.3523 47.09 12.4995 45.8205C12.2447 45.4406 12.3462 44.9256 12.7262 44.6698C13.1062 44.4139 13.6211 44.5165 13.8769 44.8965C14.6693 46.0764 15.5847 47.1861 16.5962 48.1954C16.9211 48.5193 16.9211 49.0439 16.5984 49.3678C16.2764 49.6918 15.7518 49.6936 15.426 49.3699ZM50.3813 46.0127C50.0002 45.7579 49.8987 45.243 50.1535 44.863C50.9469 43.6767 51.6259 42.4093 52.1711 41.0956C52.3459 40.6713 52.8306 40.4727 53.2538 40.6476C53.677 40.8225 53.8777 41.3072 53.7018 41.7303C53.1167 43.1445 52.3859 44.5079 51.5309 45.7849C51.2763 46.1652 50.7612 46.2679 50.3813 46.0127ZM10.3211 41.7703C9.73167 40.355 9.27936 38.874 8.97926 37.3681C8.88967 36.919 9.18113 36.4829 9.6302 36.3933C10.0663 36.3026 10.5154 36.5941 10.605 37.0442C10.8846 38.4422 11.3034 39.8174 11.8518 41.1312C12.0278 41.5544 11.8281 42.0401 11.406 42.2161C10.9748 42.3939 10.4947 42.1852 10.3211 41.7703ZM54.2243 37.9953C53.704 37.9953 53.3076 37.5204 53.4103 37.0054C53.6856 35.616 53.8249 34.1846 53.8249 32.7511C53.8249 32.2933 54.1962 31.8745 54.6539 31.8745C55.1116 31.8745 55.483 32.1973 55.483 32.655V32.7511C55.483 34.2926 55.3329 35.8319 55.036 37.327C54.9583 37.7221 54.6118 37.9953 54.2243 37.9953ZM9.35385 33.6006C8.89614 33.6006 8.5248 33.2498 8.5248 32.7921V32.7511C8.5248 31.2279 8.67269 29.7015 8.96307 28.2139C9.05159 27.7659 9.48771 27.4788 9.93678 27.5597C10.3859 27.6483 10.6784 28.0833 10.591 28.5335C10.32 29.9152 10.1829 31.3348 10.1829 32.7511C10.1829 33.2088 9.81156 33.6006 9.35385 33.6006ZM53.392 28.4061C53.1091 27.0081 52.686 25.6328 52.1365 24.3202C51.9595 23.8981 52.1581 23.4123 52.5802 23.2353C53.0055 23.0561 53.488 23.2569 53.6651 23.679C54.2577 25.0931 54.7122 26.572 55.0177 28.0757C55.1084 28.5248 54.818 28.962 54.37 29.0538C53.9036 29.1435 53.4807 28.8427 53.392 28.4061ZM10.7378 24.8923C10.3146 24.7174 10.1127 24.2327 10.2876 23.8096C10.8716 22.3933 11.5992 21.0266 12.4509 19.7496C12.7046 19.3696 13.2185 19.266 13.6006 19.5196C13.9817 19.7733 14.0842 20.2882 13.8305 20.6693C13.0393 21.8557 12.3635 23.1252 11.8205 24.4422C11.6497 24.8566 11.173 25.0691 10.7378 24.8923ZM50.7936 20.9252C50.527 20.9252 50.2657 20.7978 50.106 20.5603C49.3072 19.3782 48.3896 18.2707 47.3781 17.2657C47.0532 16.9429 47.051 16.4182 47.3738 16.0933C47.6965 15.7684 48.2212 15.7662 48.5461 16.089C49.6342 17.1696 50.6209 18.3613 51.4791 19.6319C51.736 20.0119 51.6356 20.5268 51.2567 20.7827C51.1142 20.8787 50.9534 20.9252 50.7936 20.9252ZM15.3645 17.3606C15.0406 17.0379 15.0385 16.5132 15.3623 16.1883C16.4429 15.1023 17.6358 14.1178 18.9085 13.2607C19.2906 13.0038 19.8056 13.1063 20.0592 13.4853C20.3151 13.8652 20.2147 14.3802 19.8347 14.636C18.6516 15.4327 17.5418 16.3481 16.5368 17.3585C16.2117 17.6837 15.687 17.6832 15.3645 17.3606ZM44.063 14.5626C42.8723 13.7724 41.6028 13.0977 40.2879 12.5569C39.8648 12.3831 39.6618 11.8995 39.8367 11.4752C40.0116 11.051 40.4974 10.848 40.9184 11.024C42.3325 11.6048 43.6992 12.3302 44.9805 13.1808C45.3616 13.4345 45.4652 13.9484 45.2126 14.3305C44.9595 14.7102 44.445 14.8163 44.063 14.5626ZM22.5129 12.1618C22.337 11.7397 22.5356 11.2539 22.9588 11.0769C24.3751 10.4853 25.8561 10.0319 27.3588 9.73076C27.8046 9.639 28.2451 9.93047 28.3347 10.3806C28.4243 10.8297 28.1339 11.2669 27.6848 11.3565C26.289 11.6361 24.9137 12.0571 23.5978 12.6076C23.181 12.7813 22.6927 12.5894 22.5129 12.1618ZM36.1945 11.3327C34.8235 11.065 33.4137 10.9301 32.0039 10.9301C31.5462 10.9301 31.1414 10.5587 31.1414 10.101C31.1414 9.64332 31.4782 9.27197 31.9359 9.27197H32.0039C33.5195 9.27197 35.0362 9.4177 36.5119 9.70485C36.9609 9.79229 37.2546 10.2284 37.1671 10.6775C37.0829 11.1067 36.6724 11.4188 36.1945 11.3327Z" fill="white"/>
<path d="M39.22 1.57196L38.38 4.36194C38.06 5.40198 37.1 6.11194 36.01 6.11194H27.99C26.91 6.11194 25.95 5.40198 25.63 4.36194L24.79 1.57196C27.11 1.03198 29.52 0.751953 32 0.751953C34.48 0.751953 36.9 1.03198 39.22 1.57196Z" fill="#E4E3FF"/>
<path d="M16.01 11.0819L10.33 16.7519C9.55995 17.5219 8.37996 17.6919 7.42994 17.1819L4.84993 15.8019C7.42994 11.6819 10.9299 8.18188 15.0599 5.60193L16.44 8.17194C16.95 9.12189 16.77 10.3119 16.01 11.0819Z" fill="#E4E3FF"/>
<path d="M5.36999 28.732V36.762C5.36999 37.842 4.65997 38.8019 3.61999 39.1219L0.820007 39.972C0.280029 37.652 0 35.232 0 32.752C0 30.262 0.280029 27.842 0.820007 25.522L3.61999 26.3719C4.65997 26.692 5.36999 27.652 5.36999 28.732Z" fill="#E4E3FF"/>
<path d="M49.7135 32.741C49.7135 42.5268 41.7795 50.4608 31.9938 50.4608C22.2197 50.4608 14.2857 42.5268 14.2857 32.741C14.2857 22.967 22.2197 15.033 31.9938 15.033C41.7795 15.033 49.7135 22.967 49.7135 32.741Z" fill="white"/>
</svg>
