<svg width="93" height="59" viewBox="0 0 93 59" fill="none" xmlns="http://www.w3.org/2000/svg">
<g filter="url(#filter0_i_1_88)">
<path d="M75.4043 5.82997L91.944 36.8915C92.6374 38.1936 93 39.6462 93 41.1215V55C93 57.2091 91.2091 59 89 59H5C2.23858 59 0 56.7614 0 54V5C0 2.23858 2.23856 0 4.99999 0H65.695C69.76 0 73.4937 2.24189 75.4043 5.82997Z" fill="#181818"/>
</g>
<path d="M91.7233 37.009L75.1836 5.94747C73.3165 2.44094 69.6676 0.25 65.695 0.25H4.99999C2.37663 0.25 0.25 2.37665 0.25 5V54C0.25 56.6234 2.37665 58.75 5 58.75H89C91.0711 58.75 92.75 57.0711 92.75 55V41.1215C92.75 39.6872 92.3974 38.2749 91.7233 37.009Z" stroke="url(#paint0_linear_1_88)" stroke-width="0.5"/>
<defs>
<filter id="filter0_i_1_88" x="0" y="0" width="93" height="63" filterUnits="userSpaceOnUse" color-interpolation-filters="sRGB">
<feFlood flood-opacity="0" result="BackgroundImageFix"/>
<feBlend mode="normal" in="SourceGraphic" in2="BackgroundImageFix" result="shape"/>
<feColorMatrix in="SourceAlpha" type="matrix" values="0 0 0 0 0 0 0 0 0 0 0 0 0 0 0 0 0 0 127 0" result="hardAlpha"/>
<feOffset dy="4"/>
<feGaussianBlur stdDeviation="4.95"/>
<feComposite in2="hardAlpha" operator="arithmetic" k2="-1" k3="1"/>
<feColorMatrix type="matrix" values="0 0 0 0 1 0 0 0 0 0.775376 0 0 0 0 0.490853 0 0 0 0.18 0"/>
<feBlend mode="normal" in2="shape" result="effect1_innerShadow_1_88"/>
</filter>
<linearGradient id="paint0_linear_1_88" x1="63" y1="4.82727" x2="40.8609" y2="70.446" gradientUnits="userSpaceOnUse">
<stop stop-color="white" stop-opacity="0.59"/>
<stop offset="1" stop-color="#181818"/>
</linearGradient>
</defs>
</svg>
