<svg width="93" height="59" viewBox="0 0 93 59" fill="none" xmlns="http://www.w3.org/2000/svg">
<g filter="url(#filter0_i_1_87)">
<path d="M17.5957 5.82997L1.05602 36.8915C0.362646 38.1936 0 39.6462 0 41.1215V55C0 57.2091 1.79086 59 4 59H88C90.7614 59 93 56.7614 93 54V5C93 2.23858 90.7614 0 88 0H27.305C23.24 0 19.5063 2.24189 17.5957 5.82997Z" fill="#181818"/>
</g>
<path d="M1.27668 37.009L17.8164 5.94747C19.6835 2.44094 23.3324 0.25 27.305 0.25H88C90.6234 0.25 92.75 2.37665 92.75 5V54C92.75 56.6234 90.6234 58.75 88 58.75H4C1.92893 58.75 0.25 57.0711 0.25 55V41.1215C0.25 39.6872 0.602573 38.2749 1.27668 37.009Z" stroke="url(#paint0_linear_1_87)" stroke-width="0.5"/>
<defs>
<filter id="filter0_i_1_87" x="0" y="0" width="93" height="63" filterUnits="userSpaceOnUse" color-interpolation-filters="sRGB">
<feFlood flood-opacity="0" result="BackgroundImageFix"/>
<feBlend mode="normal" in="SourceGraphic" in2="BackgroundImageFix" result="shape"/>
<feColorMatrix in="SourceAlpha" type="matrix" values="0 0 0 0 0 0 0 0 0 0 0 0 0 0 0 0 0 0 127 0" result="hardAlpha"/>
<feOffset dy="4"/>
<feGaussianBlur stdDeviation="4.95"/>
<feComposite in2="hardAlpha" operator="arithmetic" k2="-1" k3="1"/>
<feColorMatrix type="matrix" values="0 0 0 0 1 0 0 0 0 0.775376 0 0 0 0 0.490853 0 0 0 0.18 0"/>
<feBlend mode="normal" in2="shape" result="effect1_innerShadow_1_87"/>
</filter>
<linearGradient id="paint0_linear_1_87" x1="30" y1="4.82727" x2="52.1391" y2="70.446" gradientUnits="userSpaceOnUse">
<stop stop-color="white" stop-opacity="0.59"/>
<stop offset="1" stop-color="#181818"/>
</linearGradient>
</defs>
</svg>
