<svg width="392" height="99" viewBox="0 0 392 99" fill="none" xmlns="http://www.w3.org/2000/svg">
<g filter="url(#filter0_d_1_574)">
<mask id="path-1-inside-1_1_574" fill="white">
<path fill-rule="evenodd" clip-rule="evenodd" d="M44 12H348C363.464 12 376 24.536 376 40C376 55.464 363.464 68 348 68H44C28.536 68 16 55.464 16 40C16 24.536 28.536 12 44 12ZM4 40C4 17.9086 21.9086 0 44 0H348C370.091 0 388 17.9086 388 40C388 57.0186 377.372 71.5549 362.39 77.3333L354.5 91L348.149 79.9997C348.099 79.9999 348.05 80 348 80H281.851L275.5 91L269.149 80H202.851L196.5 91L190.149 80H123.851L117.5 91L111.149 80H44.8509L38.5 91L30.8777 77.7979C15.2317 72.3667 4 57.495 4 40Z"/>
</mask>
<path fill-rule="evenodd" clip-rule="evenodd" d="M44 12H348C363.464 12 376 24.536 376 40C376 55.464 363.464 68 348 68H44C28.536 68 16 55.464 16 40C16 24.536 28.536 12 44 12ZM4 40C4 17.9086 21.9086 0 44 0H348C370.091 0 388 17.9086 388 40C388 57.0186 377.372 71.5549 362.39 77.3333L354.5 91L348.149 79.9997C348.099 79.9999 348.05 80 348 80H281.851L275.5 91L269.149 80H202.851L196.5 91L190.149 80H123.851L117.5 91L111.149 80H44.8509L38.5 91L30.8777 77.7979C15.2317 72.3667 4 57.495 4 40Z" fill="url(#paint0_radial_1_574)"/>
<path d="M362.39 77.3333L362.318 77.1467L362.253 77.1721L362.217 77.2333L362.39 77.3333ZM354.5 91L354.327 91.1L354.5 91.4L354.673 91.1L354.5 91ZM348.149 79.9997L348.322 79.8997L348.264 79.7993L348.148 79.7997L348.149 79.9997ZM281.851 80V79.8H281.735L281.678 79.9L281.851 80ZM275.5 91L275.327 91.1L275.5 91.4L275.673 91.1L275.5 91ZM269.149 80L269.322 79.9L269.265 79.8H269.149V80ZM202.851 80V79.8H202.735L202.678 79.9L202.851 80ZM196.5 91L196.327 91.1L196.5 91.4L196.673 91.1L196.5 91ZM190.149 80L190.322 79.9L190.265 79.8H190.149V80ZM123.851 80V79.8H123.735L123.678 79.9L123.851 80ZM117.5 91L117.327 91.1L117.5 91.4L117.673 91.1L117.5 91ZM111.149 80L111.322 79.9L111.265 79.8H111.149V80ZM44.8509 80V79.8H44.7354L44.6776 79.9L44.8509 80ZM38.5 91L38.3268 91.1L38.5 91.4L38.6732 91.1L38.5 91ZM30.8777 77.7979L31.0509 77.6979L31.0137 77.6333L30.9433 77.6089L30.8777 77.7979ZM348 11.8H44V12.2H348V11.8ZM376.2 40C376.2 24.4256 363.574 11.8 348 11.8V12.2C363.354 12.2 375.8 24.6465 375.8 40H376.2ZM348 68.2C363.574 68.2 376.2 55.5744 376.2 40H375.8C375.8 55.3535 363.354 67.8 348 67.8V68.2ZM44 68.2H348V67.8H44V68.2ZM15.8 40C15.8 55.5744 28.4256 68.2 44 68.2V67.8C28.6465 67.8 16.2 55.3535 16.2 40H15.8ZM44 11.8C28.4256 11.8 15.8 24.4256 15.8 40H16.2C16.2 24.6465 28.6465 12.2 44 12.2V11.8ZM44 -0.2C21.7982 -0.2 3.8 17.7982 3.8 40H4.2C4.2 18.0191 22.0191 0.2 44 0.2V-0.2ZM348 -0.2H44V0.2H348V-0.2ZM388.2 40C388.2 17.7982 370.202 -0.2 348 -0.2V0.2C369.981 0.2 387.8 18.0191 387.8 40H388.2ZM362.462 77.5199C377.518 71.7127 388.2 57.104 388.2 40H387.8C387.8 56.9332 377.225 71.397 362.318 77.1467L362.462 77.5199ZM362.217 77.2333L354.327 90.9L354.673 91.1L362.564 77.4333L362.217 77.2333ZM354.673 90.9L348.322 79.8997L347.976 80.0997L354.327 91.1L354.673 90.9ZM348 80.2C348.05 80.2 348.1 80.1999 348.15 80.1997L348.148 79.7997C348.099 79.7999 348.049 79.8 348 79.8V80.2ZM281.851 80.2H348V79.8H281.851V80.2ZM275.673 91.1L282.024 80.1L281.678 79.9L275.327 90.9L275.673 91.1ZM268.976 80.1L275.327 91.1L275.673 90.9L269.322 79.9L268.976 80.1ZM202.851 80.2H269.149V79.8H202.851V80.2ZM196.673 91.1L203.024 80.1L202.678 79.9L196.327 90.9L196.673 91.1ZM189.976 80.1L196.327 91.1L196.673 90.9L190.322 79.9L189.976 80.1ZM123.851 80.2H190.149V79.8H123.851V80.2ZM117.673 91.1L124.024 80.1L123.678 79.9L117.327 90.9L117.673 91.1ZM110.976 80.1L117.327 91.1L117.673 90.9L111.322 79.9L110.976 80.1ZM44.8509 80.2H111.149V79.8H44.8509V80.2ZM38.6732 91.1L45.0241 80.1L44.6776 79.9L38.3268 90.9L38.6732 91.1ZM30.7045 77.8979L38.3268 91.1L38.6732 90.9L31.0509 77.6979L30.7045 77.8979ZM3.8 40C3.8 57.5828 15.0881 72.5286 30.8122 77.9868L30.9433 77.6089C15.3752 72.2049 4.2 57.4072 4.2 40H3.8Z" fill="url(#paint1_radial_1_574)" mask="url(#path-1-inside-1_1_574)"/>
</g>
<defs>
<filter id="filter0_d_1_574" x="0" y="0" width="392" height="99" filterUnits="userSpaceOnUse" color-interpolation-filters="sRGB">
<feFlood flood-opacity="0" result="BackgroundImageFix"/>
<feColorMatrix in="SourceAlpha" type="matrix" values="0 0 0 0 0 0 0 0 0 0 0 0 0 0 0 0 0 0 127 0" result="hardAlpha"/>
<feOffset dy="4"/>
<feGaussianBlur stdDeviation="2"/>
<feComposite in2="hardAlpha" operator="out"/>
<feColorMatrix type="matrix" values="0 0 0 0 0 0 0 0 0 0 0 0 0 0 0 0 0 0 0.25 0"/>
<feBlend mode="normal" in2="BackgroundImageFix" result="effect1_dropShadow_1_574"/>
<feBlend mode="normal" in="SourceGraphic" in2="effect1_dropShadow_1_574" result="shape"/>
</filter>
<radialGradient id="paint0_radial_1_574" cx="0" cy="0" r="1" gradientUnits="userSpaceOnUse" gradientTransform="translate(196 45.5) scale(192 45.5)">
<stop stop-color="#6B6B68"/>
<stop offset="1" stop-color="#242422"/>
</radialGradient>
<radialGradient id="paint1_radial_1_574" cx="0" cy="0" r="1" gradientUnits="userSpaceOnUse" gradientTransform="translate(196 45.5) scale(192 45.5)">
<stop stop-color="#ECECEC"/>
<stop offset="1" stop-color="#666666"/>
</radialGradient>
</defs>
</svg>
