<svg width="334" height="334" viewBox="0 0 334 334" fill="none" xmlns="http://www.w3.org/2000/svg">
<path fill-rule="evenodd" clip-rule="evenodd" d="M333.738 176.428C333.877 173.943 333.961 171.443 333.989 168.93C333.996 168.288 334 167.644 334 167C334 166.356 333.996 165.712 333.989 165.07C333.961 162.557 333.877 160.057 333.738 157.572C333.598 155.059 333.403 152.56 333.153 150.078L318.82 150.24L318.99 165.239C318.997 165.825 319 166.412 319 167C319 167.588 318.997 168.175 318.99 168.761L318.82 183.76L333.153 183.922C333.403 181.44 333.598 178.941 333.738 176.428ZM332.755 187.492L318.754 184.479L315.598 199.143C315.352 200.285 315.094 201.422 314.823 202.554L311.328 217.142L325.254 220.478C326.054 218.109 326.802 215.717 327.498 213.303C328.188 210.907 328.826 208.488 329.41 206.049C329.708 204.804 329.992 203.554 330.262 202.299C330.787 199.862 331.258 197.406 331.675 194.931C332.089 192.469 332.45 189.989 332.755 187.492ZM324.068 223.867L311.098 217.794L304.737 231.378C304.242 232.435 303.736 233.485 303.218 234.528L296.544 247.961L309.372 254.334C310.682 252.202 311.947 250.037 313.163 247.843C314.374 245.659 315.537 243.444 316.651 241.201C317.221 240.055 317.778 238.901 318.321 237.74C319.38 235.479 320.39 233.19 321.349 230.876C322.306 228.565 323.213 226.229 324.068 223.867ZM307.457 257.375L296.159 248.564L286.934 260.392C286.217 261.312 285.489 262.224 284.75 263.127L275.257 274.741L286.351 283.809C288.104 282.018 289.816 280.189 291.488 278.321C293.155 276.458 294.781 274.557 296.364 272.62C297.175 271.629 297.974 270.627 298.762 269.617C300.299 267.646 301.793 265.64 303.242 263.6C304.692 261.558 306.098 259.483 307.457 257.375ZM283.809 286.351L274.741 275.257L263.127 284.75C262.224 285.489 261.312 286.217 260.392 286.934L248.564 296.159L257.375 307.457C259.483 306.098 261.558 304.692 263.6 303.242C265.64 301.793 267.646 300.299 269.617 298.762C270.627 297.974 271.629 297.175 272.62 296.364C274.557 294.781 276.458 293.155 278.321 291.488C280.189 289.816 282.018 288.104 283.809 286.351ZM254.334 309.372L247.961 296.544L234.528 303.218C233.485 303.736 232.435 304.242 231.378 304.737L217.794 311.098L223.867 324.068C226.229 323.213 228.565 322.306 230.876 321.349C233.19 320.39 235.479 319.38 237.74 318.321C238.901 317.778 240.055 317.221 241.201 316.651C243.444 315.537 245.659 314.374 247.843 313.163C250.037 311.947 252.202 310.682 254.334 309.372ZM220.478 325.254L217.142 311.328L202.554 314.823C201.422 315.094 200.285 315.352 199.143 315.598L184.479 318.754L187.492 332.755C189.989 332.45 192.469 332.089 194.931 331.675C197.406 331.258 199.862 330.787 202.299 330.262C203.554 329.992 204.804 329.708 206.049 329.41C208.488 328.826 210.907 328.188 213.303 327.498C215.717 326.802 218.109 326.054 220.478 325.254ZM183.922 333.153L183.76 318.82L168.761 318.99C168.175 318.997 167.588 319 167 319C166.412 319 165.825 318.997 165.239 318.99L150.24 318.82L150.078 333.153C152.56 333.403 155.059 333.598 157.572 333.738C160.057 333.877 162.557 333.961 165.07 333.989C165.712 333.996 166.356 334 167 334C167.644 334 168.288 333.996 168.93 333.989C171.443 333.961 173.943 333.877 176.428 333.738C178.941 333.598 181.44 333.403 183.922 333.153ZM146.508 332.755L149.521 318.754L134.857 315.598C133.715 315.352 132.578 315.094 131.446 314.823L116.858 311.328L113.522 325.254C115.891 326.054 118.283 326.802 120.697 327.498C123.093 328.188 125.512 328.826 127.951 329.41C129.196 329.708 130.446 329.992 131.701 330.262C134.138 330.787 136.594 331.258 139.069 331.675C141.531 332.089 144.011 332.45 146.508 332.755ZM110.133 324.068L116.206 311.098L102.622 304.737C101.565 304.242 100.515 303.736 99.4722 303.218L86.0385 296.544L79.666 309.372C81.7984 310.682 83.9625 311.947 86.1569 313.163C88.3413 314.374 90.5556 315.537 92.7985 316.651C93.9451 317.221 95.0991 317.778 96.2605 318.321C98.5213 319.38 100.81 320.39 103.124 321.349C105.435 322.306 107.771 323.213 110.133 324.068ZM76.6248 307.457L85.4359 296.159L73.6079 286.934C72.6878 286.217 71.7761 285.489 70.8731 284.75L59.2595 275.257L50.1909 286.351C51.9815 288.104 53.8113 289.816 55.679 291.488C57.5421 293.155 59.4428 294.781 61.3797 296.364C62.3714 297.175 63.3726 297.974 64.383 298.762C66.3539 300.299 68.3601 301.793 70.4003 303.242C72.4416 304.692 74.5169 306.098 76.6248 307.457ZM47.649 283.809L58.7429 274.741L49.2495 263.127C48.5114 262.224 47.7834 261.312 47.0658 260.392L37.8409 248.564L26.5434 257.375C27.9025 259.483 29.3077 261.558 30.7577 263.6C32.2069 265.64 33.7007 267.646 35.2378 269.617C36.0258 270.627 36.8253 271.629 37.6359 272.62C39.2192 274.557 40.8452 276.458 42.5124 278.321C44.1836 280.189 45.8963 282.018 47.649 283.809ZM24.6285 254.334L37.456 247.961L30.7824 234.528C30.2642 233.485 29.7576 232.435 29.2629 231.378L22.9016 217.794L9.93216 223.867C10.7873 226.229 11.6941 228.565 12.6513 230.876C13.6103 233.19 14.6198 235.479 15.6785 237.74C16.2224 238.901 16.7792 240.055 17.3488 241.201C18.463 243.444 19.6262 245.659 20.837 247.843C22.0533 250.037 23.3176 252.202 24.6285 254.334ZM8.7461 220.478L22.6719 217.142L19.1774 202.554C18.9062 201.422 18.6477 200.285 18.402 199.143L15.2464 184.479L1.24472 187.492C1.55026 189.989 1.91092 192.469 2.32544 194.931C2.74216 197.406 3.21331 199.862 3.73762 202.299C4.00774 203.554 4.29197 204.804 4.59014 206.049C5.17449 208.488 5.81237 210.907 6.50246 213.303C7.19778 215.717 7.9461 218.109 8.7461 220.478ZM0.846756 183.922L15.1799 183.76L15.01 168.761C15.0033 168.175 15 167.588 15 167C15 166.412 15.0033 165.825 15.01 165.239L15.1799 150.24L0.846755 150.078C0.59696 152.56 0.401526 155.059 0.261661 157.572C0.123359 160.057 0.0393922 162.557 0.0109283 165.07C0.00364927 165.712 0 166.356 0 167C0 167.644 0.00364933 168.288 0.0109284 168.93C0.0393925 171.443 0.12336 173.943 0.261661 176.428C0.401526 178.941 0.59696 181.44 0.846756 183.922ZM1.24472 146.508L15.2464 149.521L18.402 134.857C18.6477 133.715 18.9062 132.578 19.1774 131.446L22.6719 116.858L8.7461 113.522C7.9461 115.891 7.19778 118.283 6.50246 120.697C5.81237 123.093 5.17449 125.512 4.59014 127.951C4.29197 129.196 4.00774 130.446 3.73762 131.701C3.2133 134.138 2.74215 136.594 2.32544 139.069C1.91091 141.531 1.55026 144.011 1.24472 146.508ZM9.93217 110.133L22.9016 116.206L29.2629 102.622C29.7576 101.565 30.2642 100.515 30.7824 99.4722L37.456 86.0385L24.6285 79.666C23.3176 81.7984 22.0533 83.9625 20.837 86.1569C19.6262 88.3413 18.463 90.5556 17.3488 92.7986C16.7792 93.9451 16.2224 95.0991 15.6785 96.2605C14.6198 98.5213 13.6103 100.81 12.6513 103.124C11.6941 105.435 10.7873 107.771 9.93217 110.133ZM26.5434 76.6248L37.8409 85.4359L47.0658 73.6079C47.7834 72.6878 48.5114 71.7761 49.2495 70.8731L58.7429 59.2595L47.649 50.1909C45.8963 51.9815 44.1836 53.8113 42.5124 55.679C40.8452 57.5421 39.2192 59.4428 37.6359 61.3797C36.8253 62.3714 36.0258 63.3726 35.2378 64.383C33.7007 66.3539 32.2068 68.3601 30.7577 70.4003C29.3077 72.4416 27.9025 74.5169 26.5434 76.6248ZM50.1909 47.649L59.2595 58.7429L70.8731 49.2495C71.7761 48.5114 72.6878 47.7834 73.6079 47.0658L85.4359 37.8409L76.6248 26.5434C74.5169 27.9025 72.4416 29.3077 70.4003 30.7577C68.3601 32.2069 66.3539 33.7007 64.383 35.2378C63.3726 36.0259 62.3714 36.8253 61.3797 37.6359C59.4428 39.2192 57.5421 40.8452 55.679 42.5124C53.8113 44.1836 51.9815 45.8963 50.1909 47.649ZM79.666 24.6285L86.0385 37.456L99.4722 30.7824C100.515 30.2642 101.565 29.7576 102.622 29.2629L116.206 22.9016L110.133 9.93217C107.771 10.7873 105.435 11.6941 103.124 12.6513C100.81 13.6103 98.5213 14.6198 96.2605 15.6785C95.0991 16.2224 93.9451 16.7792 92.7985 17.3488C90.5556 18.463 88.3413 19.6262 86.1569 20.837C83.9625 22.0533 81.7984 23.3176 79.666 24.6285ZM113.522 8.7461L116.858 22.6719L131.446 19.1774C132.578 18.9062 133.715 18.6477 134.857 18.402L149.521 15.2464L146.508 1.24472C144.011 1.55026 141.531 1.91092 139.069 2.32544C136.594 2.74216 134.138 3.21331 131.701 3.73762C130.446 4.00774 129.196 4.29197 127.951 4.59014C125.512 5.17449 123.093 5.81237 120.697 6.50247C118.283 7.19778 115.891 7.94611 113.522 8.7461ZM150.078 0.846756L150.24 15.1799L165.239 15.01C165.825 15.0033 166.412 15 167 15C167.588 15 168.175 15.0033 168.761 15.01L183.76 15.1799L183.922 0.846755C181.44 0.59696 178.941 0.401526 176.428 0.261661C173.943 0.123359 171.443 0.0393921 168.93 0.0109283C168.288 0.00364927 167.644 0 167 0C166.356 0 165.712 0.00364933 165.07 0.0109285C162.557 0.0393925 160.057 0.12336 157.572 0.261661C155.059 0.401526 152.56 0.596961 150.078 0.846756ZM187.492 1.24472L184.479 15.2464L199.143 18.402C200.285 18.6477 201.422 18.9062 202.554 19.1774L217.142 22.6719L220.478 8.74609C218.109 7.9461 215.717 7.19777 213.303 6.50246C210.907 5.81236 208.488 5.17448 206.049 4.59013C204.804 4.29197 203.554 4.00774 202.299 3.73762C199.862 3.2133 197.406 2.74215 194.931 2.32544C192.469 1.91091 189.989 1.55026 187.492 1.24472ZM223.867 9.93216L217.794 22.9016L231.378 29.2629C232.435 29.7576 233.485 30.2642 234.528 30.7824L247.961 37.456L254.334 24.6285C252.202 23.3176 250.037 22.0533 247.843 20.837C245.659 19.6262 243.444 18.463 241.201 17.3488C240.055 16.7792 238.901 16.2224 237.74 15.6785C235.479 14.6198 233.19 13.6103 230.876 12.6513C228.565 11.6941 226.229 10.7873 223.867 9.93216ZM257.375 26.5434L248.564 37.8409L260.392 47.0658C261.312 47.7834 262.224 48.5114 263.127 49.2495L274.741 58.7429L283.809 47.649C282.018 45.8963 280.189 44.1836 278.321 42.5124C276.458 40.8452 274.557 39.2192 272.62 37.6359C271.629 36.8253 270.627 36.0258 269.617 35.2378C267.646 33.7007 265.64 32.2068 263.6 30.7577C261.558 29.3077 259.483 27.9025 257.375 26.5434ZM286.351 50.1909L275.257 59.2595L284.75 70.8731C285.489 71.7761 286.217 72.6878 286.934 73.6079L296.159 85.4359L307.457 76.6248C306.098 74.5169 304.692 72.4416 303.242 70.4003C301.793 68.3601 300.299 66.3539 298.762 64.383C297.974 63.3726 297.175 62.3714 296.364 61.3797C294.781 59.4428 293.155 57.5421 291.488 55.679C289.816 53.8113 288.104 51.9815 286.351 50.1909ZM309.372 79.666L296.544 86.0385L303.218 99.4722C303.736 100.515 304.242 101.565 304.737 102.622L311.098 116.206L324.068 110.133C323.213 107.771 322.306 105.435 321.349 103.124C320.39 100.81 319.38 98.5213 318.321 96.2605C317.778 95.0991 317.221 93.9451 316.651 92.7985C315.537 90.5556 314.374 88.3413 313.163 86.1569C311.947 83.9625 310.682 81.7984 309.372 79.666ZM325.254 113.522L311.328 116.858L314.823 131.446C315.094 132.578 315.352 133.715 315.598 134.857L318.754 149.521L332.755 146.508C332.45 144.011 332.089 141.531 331.675 139.069C331.258 136.594 330.787 134.138 330.262 131.701C329.992 130.446 329.708 129.196 329.41 127.951C328.826 125.512 328.188 123.093 327.498 120.697C326.802 118.283 326.054 115.891 325.254 113.522Z" fill="#3E3E3B"/>
<path fill-rule="evenodd" clip-rule="evenodd" d="M183.922 333.153L183.76 318.82L168.761 318.99C168.175 318.997 167.588 319 167 319C166.412 319 165.825 318.997 165.239 318.99L150.24 318.82L150.078 333.153C152.56 333.403 155.059 333.598 157.572 333.738C160.057 333.877 162.557 333.961 165.07 333.989C165.712 333.996 166.356 334 167 334C167.644 334 168.288 333.996 168.93 333.989C171.443 333.961 173.943 333.877 176.428 333.738C178.941 333.598 181.44 333.403 183.922 333.153Z" fill="#13C4FC"/>
<path fill-rule="evenodd" clip-rule="evenodd" d="M1.24475 146.508L15.2465 149.521L18.402 134.857C18.6477 133.715 18.9062 132.578 19.1774 131.446L22.672 116.858L8.74613 113.522C7.94614 115.891 7.19781 118.283 6.5025 120.697C5.8124 123.093 5.17452 125.512 4.59017 127.951C4.292 129.196 4.00777 130.446 3.73765 131.701C3.21334 134.138 2.74219 136.594 2.32547 139.069C1.91095 141.531 1.55029 144.011 1.24475 146.508Z" fill="white"/>
<path fill-rule="evenodd" clip-rule="evenodd" d="M332.755 187.492L318.754 184.479L315.598 199.143C315.352 200.285 315.094 201.422 314.823 202.554L311.328 217.142L325.254 220.478C326.054 218.109 326.802 215.717 327.498 213.303C328.188 210.907 328.826 208.488 329.41 206.049C329.708 204.804 329.992 203.554 330.262 202.299C330.787 199.862 331.258 197.406 331.675 194.931C332.089 192.469 332.45 189.989 332.755 187.492ZM307.457 257.375L296.159 248.564L286.934 260.392C286.217 261.312 285.489 262.224 284.75 263.127L275.257 274.741L286.351 283.809C288.104 282.018 289.816 280.189 291.488 278.321C293.155 276.458 294.781 274.557 296.364 272.62C297.175 271.629 297.974 270.627 298.762 269.617C300.299 267.646 301.793 265.64 303.242 263.6C304.692 261.558 306.098 259.483 307.457 257.375ZM254.334 309.372L247.962 296.544L234.528 303.218C233.485 303.736 232.435 304.242 231.378 304.737L217.794 311.098L223.867 324.068C226.229 323.213 228.565 322.306 230.876 321.349C233.19 320.39 235.479 319.38 237.74 318.321C238.901 317.778 240.055 317.221 241.201 316.651C243.444 315.537 245.659 314.374 247.843 313.163C250.037 311.947 252.202 310.682 254.334 309.372ZM110.133 324.068L116.206 311.098L102.622 304.737C101.565 304.242 100.515 303.736 99.4722 303.218L86.0386 296.544L79.666 309.372C81.7985 310.682 83.9626 311.947 86.157 313.163C88.3413 314.374 90.5556 315.537 92.7986 316.651C93.9451 317.221 95.0992 317.778 96.2605 318.321C98.5213 319.38 100.81 320.39 103.125 321.349C105.435 322.306 107.771 323.213 110.133 324.068ZM47.649 283.809L58.7429 274.741L49.2496 263.127C48.5114 262.224 47.7834 261.312 47.0658 260.392L37.841 248.564L26.5434 257.375C27.9025 259.483 29.3077 261.558 30.7577 263.6C32.2069 265.64 33.7007 267.646 35.2378 269.617C36.0259 270.627 36.8253 271.629 37.6359 272.62C39.2193 274.557 40.8452 276.458 42.5124 278.321C44.1837 280.189 45.8964 282.018 47.649 283.809ZM8.74613 220.478L22.672 217.142L19.1774 202.554C18.9062 201.422 18.6477 200.285 18.402 199.143L15.2465 184.479L1.24475 187.492C1.55029 189.989 1.91095 192.469 2.32547 194.931C2.74219 197.406 3.21334 199.862 3.73765 202.299C4.00777 203.554 4.292 204.804 4.59017 206.049C5.17452 208.488 5.8124 210.907 6.5025 213.303C7.19781 215.717 7.94614 218.109 8.74613 220.478ZM26.5434 76.6248L37.8409 85.4359L47.0658 73.6079C47.7834 72.6878 48.5114 71.7761 49.2496 70.8731L58.7429 59.2595L47.649 50.1909C45.8964 51.9815 44.1837 53.8113 42.5124 55.679C40.8452 57.5421 39.2193 59.4428 37.636 61.3797C36.8253 62.3714 36.0259 63.3726 35.2378 64.383C33.7007 66.3539 32.2069 68.3601 30.7577 70.4003C29.3077 72.4416 27.9025 74.5169 26.5434 76.6248ZM79.666 24.6285L86.0386 37.456L99.4722 30.7824C100.515 30.2642 101.565 29.7576 102.622 29.2629L116.206 22.9015L110.133 9.93217C107.771 10.7873 105.435 11.6941 103.125 12.6513C100.81 13.6103 98.5213 14.6198 96.2605 15.6785C95.0992 16.2224 93.9451 16.7792 92.7986 17.3488C90.5556 18.463 88.3413 19.6262 86.157 20.837C83.9626 22.0533 81.7984 23.3176 79.666 24.6285ZM150.078 0.846757L150.24 15.1799L165.239 15.01C165.825 15.0033 166.412 15 167 15C167.588 15 168.175 15.0033 168.761 15.01L183.76 15.1799L183.922 0.846755C181.44 0.59696 178.941 0.401525 176.428 0.261661C173.943 0.123359 171.443 0.039392 168.931 0.0109282C168.288 0.00364915 167.644 0 167 0C166.356 0 165.712 0.00364903 165.07 0.0109282C162.557 0.0393922 160.057 0.123359 157.572 0.261661C155.059 0.401525 152.56 0.596961 150.078 0.846757ZM223.867 9.93216L217.794 22.9015L231.378 29.2629C232.435 29.7576 233.485 30.2642 234.528 30.7824L247.962 37.456L254.334 24.6285C252.202 23.3176 250.037 22.0533 247.843 20.837C245.659 19.6262 243.444 18.463 241.201 17.3488C240.055 16.7792 238.901 16.2224 237.74 15.6785C235.479 14.6198 233.19 13.6103 230.876 12.6513C228.565 11.6941 226.229 10.7873 223.867 9.93216ZM286.351 50.1909L275.257 59.2595L284.75 70.8731C285.489 71.7761 286.217 72.6878 286.934 73.6079L296.159 85.4359L307.457 76.6247C306.098 74.5169 304.692 72.4416 303.242 70.4002C301.793 68.3601 300.299 66.3539 298.762 64.383C297.974 63.3726 297.175 62.3714 296.364 61.3797C294.781 59.4428 293.155 57.5421 291.488 55.679C289.816 53.8113 288.104 51.9815 286.351 50.1909ZM325.254 113.522L311.328 116.858L314.823 131.446C315.094 132.578 315.352 133.715 315.598 134.857L318.754 149.521L332.755 146.508C332.45 144.011 332.089 141.531 331.675 139.069C331.258 136.594 330.787 134.138 330.262 131.701C329.992 130.446 329.708 129.196 329.41 127.951C328.826 125.512 328.188 123.093 327.498 120.697C326.802 118.283 326.054 115.891 325.254 113.522Z" fill="#FFC202"/>
<path fill-rule="evenodd" clip-rule="evenodd" d="M254.334 309.372L247.962 296.544L234.528 303.218C233.485 303.736 232.435 304.242 231.378 304.737L217.794 311.098L223.867 324.068C226.229 323.213 228.565 322.306 230.876 321.349C233.19 320.39 235.479 319.38 237.74 318.321C238.901 317.778 240.055 317.221 241.202 316.651C243.444 315.537 245.659 314.374 247.843 313.163C250.038 311.947 252.202 310.682 254.334 309.372ZM110.133 324.068L116.206 311.098L102.622 304.737C101.565 304.242 100.515 303.736 99.4723 303.218L86.0386 296.544L79.6661 309.372C81.7985 310.682 83.9626 311.947 86.157 313.163C88.3413 314.374 90.5557 315.537 92.7986 316.651C93.9452 317.221 95.0992 317.778 96.2606 318.321C98.5214 319.38 100.81 320.39 103.125 321.349C105.435 322.306 107.771 323.213 110.133 324.068ZM26.5435 76.6248L37.841 85.4359L47.0659 73.6079C47.7835 72.6878 48.5115 71.7761 49.2496 70.8731L58.743 59.2595L47.6491 50.1909C45.8964 51.9815 44.1837 53.8113 42.5125 55.679C40.8453 57.5421 39.2193 59.4428 37.636 61.3797C36.8254 62.3714 36.0259 63.3726 35.2379 64.383C33.7008 66.3539 32.2069 68.3601 30.7578 70.4003C29.3078 72.4416 27.9025 74.5169 26.5435 76.6248ZM150.078 0.846756L150.24 15.1799L165.239 15.01C165.826 15.0033 166.412 15 167 15C167.588 15 168.175 15.0033 168.761 15.01L183.76 15.1799L183.922 0.846755C181.44 0.59696 178.941 0.401526 176.428 0.261661C173.943 0.123359 171.444 0.0393921 168.931 0.0109283C168.288 0.00364927 167.644 0 167 0C166.356 0 165.712 0.00364933 165.07 0.0109285C162.557 0.0393925 160.057 0.12336 157.572 0.261661C155.059 0.401526 152.56 0.596961 150.078 0.846756ZM223.867 9.93216L217.794 22.9016L231.378 29.2629C232.435 29.7576 233.485 30.2642 234.528 30.7824L247.962 37.456L254.334 24.6285C252.202 23.3176 250.038 22.0533 247.843 20.837C245.659 19.6262 243.444 18.463 241.202 17.3488C240.055 16.7792 238.901 16.2224 237.74 15.6785C235.479 14.6198 233.19 13.6103 230.876 12.6513C228.565 11.6941 226.229 10.7873 223.867 9.93216ZM325.254 113.522L311.328 116.858L314.823 131.446C315.094 132.578 315.352 133.715 315.598 134.857L318.754 149.521L332.755 146.508C332.45 144.011 332.089 141.531 331.675 139.069C331.258 136.594 330.787 134.138 330.262 131.701C329.992 130.446 329.708 129.196 329.41 127.951C328.826 125.512 328.188 123.093 327.498 120.697C326.802 118.283 326.054 115.891 325.254 113.522Z" fill="#31FF39"/>
</svg>
